<svg width="1474" height="76" viewBox="0 0 1474 76" fill="none" xmlns="http://www.w3.org/2000/svg">
<path d="M72.9969 1.15629L46.8739 51.7178V75.2642H26.123V51.7178L0 1.15629H23.5949L36.6564 29.7483L49.7179 1.15629H72.9969Z" fill="#ebe9e5"/>
<path d="M115.991 76C109.039 76 102.649 74.3882 96.8206 71.1646C90.992 67.8709 86.3573 63.3509 82.9164 57.6044C79.5457 51.7879 77.8603 45.2356 77.8603 37.9474C77.8603 30.6593 79.5457 24.142 82.9164 18.3956C86.3573 12.5791 90.992 8.05901 96.8206 4.83541C102.649 1.6118 109.039 0 115.991 0C123.014 0 129.404 1.6118 135.162 4.83541C140.991 8.05901 145.59 12.5791 148.961 18.3956C152.332 24.142 154.017 30.6593 154.017 37.9474C154.017 45.2356 152.332 51.7879 148.961 57.6044C145.59 63.3509 140.991 67.8709 135.162 71.1646C129.334 74.3882 122.944 76 115.991 76ZM115.991 56.8686C121.258 56.8686 125.401 55.1517 128.421 51.7178C131.511 48.284 133.056 43.6939 133.056 37.9474C133.056 32.0609 131.511 27.4357 128.421 24.0719C125.401 20.6381 121.258 18.9212 115.991 18.9212C110.655 18.9212 106.476 20.6381 103.457 24.0719C100.437 27.4357 98.9273 32.0609 98.9273 37.9474C98.9273 43.7639 100.437 48.3891 103.457 51.823C106.476 55.1867 110.655 56.8686 115.991 56.8686Z" fill="#FFFEF8"/>
<path d="M184.576 1.15629V44.1494C184.576 48.1438 185.489 51.2273 187.314 53.3997C189.211 55.5722 192.055 56.6584 195.847 56.6584C199.639 56.6584 202.483 55.5722 204.379 53.3997C206.345 51.1572 207.328 48.0738 207.328 44.1494V1.15629H227.974V44.1494C227.974 50.947 226.534 56.7635 223.655 61.5989C220.776 66.3642 216.843 69.9733 211.857 72.426C206.942 74.8087 201.464 76 195.425 76C189.386 76 183.979 74.8087 179.204 72.426C174.499 69.9733 170.777 66.3642 168.038 61.5989C165.37 56.8336 164.036 51.0171 164.036 44.1494V1.15629H184.576Z" fill="#FFFEF8"/>
<path d="M277.998 75.2642L263.252 47.9336H261.04V75.2642H240.394V1.15629H272.942C278.911 1.15629 283.967 2.20747 288.111 4.30982C292.254 6.34209 295.379 9.18027 297.485 12.8243C299.592 16.3983 300.645 20.4278 300.645 24.9129C300.645 29.9585 299.241 34.4085 296.432 38.2628C293.693 42.047 289.656 44.745 284.319 46.3568L301.067 75.2642H277.998ZM261.04 33.8479H271.257C274.066 33.8479 276.173 33.1821 277.577 31.8506C278.982 30.5191 279.684 28.592 279.684 26.0692C279.684 23.6865 278.947 21.8294 277.472 20.4979C276.067 19.0964 273.996 18.3956 271.257 18.3956H261.04V33.8479Z" fill="#FFFEF8"/>
<path d="M379.703 37.2116C384.057 38.1927 387.498 40.3651 390.026 43.7289C392.624 47.0226 393.923 50.8068 393.923 55.0816C393.923 61.3887 391.746 66.3292 387.393 69.9032C383.039 73.4772 376.929 75.2642 369.064 75.2642H332.303V1.15629H367.906C375.49 1.15629 381.424 2.83817 385.707 6.20194C390.061 9.5657 392.238 14.296 392.238 20.3928C392.238 24.7377 391.079 28.3817 388.762 31.325C386.515 34.1983 383.495 36.1604 379.703 37.2116ZM352.948 30.5892H363.376C368.573 30.5892 371.171 28.4518 371.171 24.177C371.171 19.7621 368.573 17.5546 363.376 17.5546H352.948V30.5892ZM364.956 58.6556C370.153 58.6556 372.751 56.4832 372.751 52.1383C372.751 49.8958 372.049 48.1789 370.644 46.9876C369.31 45.7962 367.379 45.2006 364.851 45.2006H352.948V58.6556H364.956Z" fill="#FFFEF8"/>
<path d="M441.629 75.2642L426.882 47.9336H424.67V75.2642H404.025V1.15629H436.573C442.542 1.15629 447.598 2.20747 451.741 4.30982C455.884 6.34209 459.009 9.18027 461.116 12.8243C463.223 16.3983 464.276 20.4278 464.276 24.9129C464.276 29.9585 462.872 34.4085 460.063 38.2628C457.324 42.047 453.286 44.745 447.949 46.3568L464.697 75.2642H441.629ZM424.67 33.8479H434.888C437.697 33.8479 439.803 33.1821 441.208 31.8506C442.612 30.5191 443.314 28.592 443.314 26.0692C443.314 23.6865 442.577 21.8294 441.102 20.4979C439.698 19.0964 437.626 18.3956 434.888 18.3956H424.67V33.8479Z" fill="#FFFEF8"/>
<path d="M521.697 63.1757H495.364L491.361 75.2642H469.662L496.733 1.15629H520.539L547.504 75.2642H525.7L521.697 63.1757ZM516.536 47.408L508.531 23.4412L500.631 47.408H516.536Z" fill="#FFFEF8"/>
<path d="M575.932 1.15629V75.2642H555.287V1.15629H575.932Z" fill="#FFFEF8"/>
<path d="M657.526 75.2642H636.881L609.388 33.8479V75.2642H588.743V1.15629H609.388L636.881 43.0982V1.15629H657.526V75.2642Z" fill="#FFFEF8"/>
<path d="M698.359 76C689.722 76 682.629 73.9677 677.081 69.9032C671.534 65.7686 668.549 59.882 668.128 52.2434H690.143C690.354 54.8363 691.126 56.7284 692.46 57.9198C693.795 59.1111 695.515 59.7068 697.622 59.7068C699.518 59.7068 701.063 59.2513 702.256 58.3402C703.52 57.3592 704.152 56.0277 704.152 54.3458C704.152 52.1734 703.134 50.4915 701.098 49.3001C699.061 48.1088 695.761 46.7773 691.196 45.3057C686.351 43.6939 682.418 42.1521 679.399 40.6805C676.449 39.1388 673.851 36.9313 671.604 34.0581C669.427 31.1148 668.339 27.2955 668.339 22.6003C668.339 17.8349 669.533 13.7704 671.92 10.4066C674.308 6.9728 677.608 4.3799 681.822 2.62794C686.035 0.875979 690.81 0 696.147 0C704.785 0 711.666 2.03227 716.793 6.09682C721.989 10.0913 724.763 15.7326 725.114 23.0207H702.678C702.608 20.7782 701.905 19.0964 700.571 17.9751C699.307 16.8538 697.657 16.2932 695.62 16.2932C694.075 16.2932 692.811 16.7487 691.828 17.6597C690.845 18.5708 690.354 19.8672 690.354 21.5491C690.354 22.9507 690.88 24.177 691.934 25.2282C693.057 26.2093 694.427 27.0853 696.042 27.8562C697.657 28.5569 700.044 29.468 703.204 30.5892C707.909 32.201 711.772 33.8128 714.791 35.4246C717.881 36.9663 720.514 39.1738 722.691 42.047C724.939 44.8502 726.062 48.4242 726.062 52.769C726.062 57.184 724.939 61.1434 722.691 64.6473C720.514 68.1512 717.319 70.9193 713.106 72.9516C708.963 74.9839 704.047 76 698.359 76Z" fill="#FFFEF8"/>
<path d="M793.531 76C786.579 76 780.189 74.3882 774.36 71.1646C768.532 67.8709 763.897 63.3509 760.456 57.6044C757.086 51.7879 755.4 45.2356 755.4 37.9474C755.4 30.6593 757.086 24.142 760.456 18.3956C763.897 12.5791 768.532 8.05901 774.36 4.83541C780.189 1.6118 786.579 0 793.531 0C800.554 0 806.944 1.6118 812.702 4.83541C818.531 8.05901 823.13 12.5791 826.501 18.3956C829.872 24.142 831.557 30.6593 831.557 37.9474C831.557 45.2356 829.872 51.7879 826.501 57.6044C823.13 63.3509 818.531 67.8709 812.702 71.1646C806.874 74.3882 800.483 76 793.531 76ZM793.531 56.8686C798.798 56.8686 802.941 55.1517 805.961 51.7178C809.051 48.284 810.596 43.6939 810.596 37.9474C810.596 32.0609 809.051 27.4357 805.961 24.0719C802.941 20.6381 798.798 18.9212 793.531 18.9212C788.194 18.9212 784.016 20.6381 780.997 24.0719C777.977 27.4357 776.467 32.0609 776.467 37.9474C776.467 43.7639 777.977 48.3891 780.997 51.823C784.016 55.1867 788.194 56.8686 793.531 56.8686Z" fill="#FFFEF8"/>
<path d="M910.675 75.2642H890.029L862.537 33.8479V75.2642H841.891V1.15629H862.537L890.029 43.0982V1.15629H910.675V75.2642Z" fill="#FFFEF8"/>
<path d="M991.683 63.1757H965.349L961.347 75.2642H939.648L966.719 1.15629H990.524L1017.49 75.2642H995.686L991.683 63.1757ZM986.522 47.408L978.516 23.4412L970.616 47.408H986.522Z" fill="#FFFEF8"/>
<path d="M1062.88 75.2642L1048.13 47.9336H1045.92V75.2642H1025.27V1.15629H1057.82C1063.79 1.15629 1068.85 2.20747 1072.99 4.30982C1077.13 6.34209 1080.26 9.18027 1082.36 12.8243C1084.47 16.3983 1085.52 20.4278 1085.52 24.9129C1085.52 29.9585 1084.12 34.4085 1081.31 38.2628C1078.57 42.047 1074.53 44.745 1069.2 46.3568L1085.95 75.2642H1062.88ZM1045.92 33.8479H1056.14C1058.94 33.8479 1061.05 33.1821 1062.46 31.8506C1063.86 30.5191 1064.56 28.592 1064.56 26.0692C1064.56 23.6865 1063.82 21.8294 1062.35 20.4979C1060.95 19.0964 1058.87 18.3956 1056.14 18.3956H1045.92V33.8479Z" fill="#FFFEF8"/>
<path d="M1151.9 1.15629V17.5546H1132.1V75.2642H1111.45V17.5546H1091.86V1.15629H1151.9Z" fill="#FFFEF8"/>
<path d="M1268.5 1.15629V75.2642H1247.85V34.3734L1233.84 75.2642H1216.57L1202.45 34.0581V75.2642H1181.81V1.15629H1206.77L1225.41 49.3001L1243.64 1.15629H1268.5Z" fill="#FFFEF8"/>
<path d="M1328.28 63.1757H1301.95L1297.94 75.2642H1276.25L1303.32 1.15629H1327.12L1354.09 75.2642H1332.28L1328.28 63.1757ZM1323.12 47.408L1315.11 23.4412L1307.21 47.408H1323.12Z" fill="#FFFEF8"/>
<path d="M1417.8 1.15629V17.5546H1398V75.2642H1377.35V17.5546H1357.76V1.15629H1417.8Z" fill="#FFFEF8"/>
<path d="M1447.14 17.6597V29.7483H1470.84V45.4108H1447.14V58.7607H1474V75.2642H1426.49V1.15629H1474V17.6597H1447.14Z" fill="#FFFEF8"/>
</svg>
