<svg width="1472" height="90" viewBox="0 0 1472 90" fill="none" xmlns="http://www.w3.org/2000/svg">
<path d="M0 45.0622C0 36.4315 1.79805 28.7552 5.39415 22.0332C9.07389 15.2282 14.259 9.9585 20.9494 6.22407C27.6398 2.40664 35.3338 0.497926 44.0313 0.497926C55.0705 0.497926 64.3535 3.44398 71.8802 9.3361C79.407 15.1452 84.2575 23.0705 86.4319 33.112H59.9629C58.3739 29.7925 56.1577 27.2614 53.3143 25.5187C50.5545 23.7759 47.3347 22.9046 43.655 22.9046C37.9681 22.9046 33.4103 24.9378 29.9815 29.0042C26.6362 32.9876 24.9636 38.3402 24.9636 45.0622C24.9636 51.8672 26.6362 57.3029 29.9815 61.3693C33.4103 65.3527 37.9681 67.3444 43.655 67.3444C47.3347 67.3444 50.5545 66.473 53.3143 64.7303C56.1577 62.9876 58.3739 60.4564 59.9629 57.1369H86.4319C84.2575 67.1784 79.407 75.1452 71.8802 81.0373C64.3535 86.8465 55.0705 89.751 44.0313 89.751C35.3338 89.751 27.6398 87.8838 20.9494 84.1494C14.259 80.332 9.07389 75.0622 5.39415 68.3403C1.79805 61.5353 0 53.7759 0 45.0622Z" fill="#FFFEF8"/>
<path d="M144.113 89.1286L126.551 56.7635H123.917V89.1286H99.3292V1.36929H138.092C145.2 1.36929 151.222 2.61411 156.156 5.10374C161.09 7.51037 164.812 10.8714 167.321 15.1867C169.83 19.4191 171.084 24.1909 171.084 29.5021C171.084 35.4772 169.411 40.7469 166.066 45.3112C162.805 49.7925 157.996 52.9876 151.64 54.8963L171.586 89.1286H144.113ZM123.917 40.083H136.085C139.43 40.083 141.939 39.2946 143.611 37.7178C145.284 36.1411 146.12 33.8589 146.12 30.8714C146.12 28.0498 145.242 25.8506 143.486 24.2739C141.813 22.6141 139.346 21.7842 136.085 21.7842H123.917V40.083Z" fill="#FFFEF8"/>
<path d="M208.107 20.9129V35.2282H236.332V53.7759H208.107V69.5851H240.096V89.1286H183.52V1.36929H240.096V20.9129H208.107Z" fill="#FFFEF8"/>
<path d="M309.448 74.8133H278.087L273.32 89.1286H247.478L279.718 1.36929H308.068L340.183 89.1286H314.215L309.448 74.8133ZM303.302 56.1411L293.768 27.7593L284.359 56.1411H303.302Z" fill="#FFFEF8"/>
<path d="M416.062 1.36929V20.7884H392.479V89.1286H367.891V20.7884H344.558V1.36929H416.062Z" fill="#FFFEF8"/>
<path d="M451.001 1.36929V89.1286H426.414V1.36929H451.001Z" fill="#FFFEF8"/>
<path d="M552.313 1.36929L521.829 89.1286H490.343L459.734 1.36929H486.078L506.149 64.7303L526.095 1.36929H552.313Z" fill="#FFFEF8"/>
<path d="M585.815 1.36929V89.1286H561.228V1.36929H585.815Z" fill="#FFFEF8"/>
<path d="M667.683 1.36929V20.7884H644.099V89.1286H619.512V20.7884H596.179V1.36929H667.683Z" fill="#FFFEF8"/>
<path d="M758.445 1.36929L727.335 61.2448V89.1286H702.622V61.2448L671.511 1.36929H699.611L715.166 35.2282L730.722 1.36929H758.445Z" fill="#FFFEF8"/>
<path d="M817.101 1.36929V89.1286H792.513V1.36929H817.101Z" fill="#FFFEF8"/>
<path d="M914.273 89.1286H889.685L856.944 40.083V89.1286H832.357V1.36929H856.944L889.685 51.0373V1.36929H914.273V89.1286Z" fill="#FFFEF8"/>
<path d="M1058.04 1.36929V89.1286H1033.45V40.7054L1016.77 89.1286H996.195L979.386 40.332V89.1286H954.798V1.36929H984.529L1006.73 58.3817L1028.43 1.36929H1058.04Z" fill="#FFFEF8"/>
<path d="M1115.69 90C1107.41 90 1099.8 88.0913 1092.86 84.2739C1085.92 80.3734 1080.4 75.0208 1076.3 68.2158C1072.29 61.3278 1070.28 53.5685 1070.28 44.9378C1070.28 36.3071 1072.29 28.5892 1076.3 21.7842C1080.4 14.8963 1085.92 9.54357 1092.86 5.72614C1099.8 1.90871 1107.41 0 1115.69 0C1124.05 0 1131.66 1.90871 1138.52 5.72614C1145.46 9.54357 1150.94 14.8963 1154.96 21.7842C1158.97 28.5892 1160.98 36.3071 1160.98 44.9378C1160.98 53.5685 1158.97 61.3278 1154.96 68.2158C1150.94 75.0208 1145.46 80.3734 1138.52 84.2739C1131.58 88.0913 1123.97 90 1115.69 90ZM1115.69 67.3444C1121.96 67.3444 1126.9 65.3112 1130.49 61.2448C1134.17 57.1784 1136.01 51.7427 1136.01 44.9378C1136.01 37.9668 1134.17 32.4896 1130.49 28.5062C1126.9 24.4398 1121.96 22.4066 1115.69 22.4066C1109.34 22.4066 1104.36 24.4398 1100.76 28.5062C1097.17 32.4896 1095.37 37.9668 1095.37 44.9378C1095.37 51.8257 1097.17 57.3029 1100.76 61.3693C1104.36 65.3527 1109.34 67.3444 1115.69 67.3444Z" fill="#FFFEF8"/>
<path d="M1239.9 1.36929V20.7884H1216.31V89.1286H1191.72V20.7884H1168.39V1.36929H1239.9Z" fill="#FFFEF8"/>
<path d="M1274.83 1.36929V89.1286H1250.25V1.36929H1274.83Z" fill="#FFFEF8"/>
<path d="M1332.49 90C1324.21 90 1316.6 88.0913 1309.66 84.2739C1302.72 80.3734 1297.2 75.0208 1293.1 68.2158C1289.09 61.3278 1287.08 53.5685 1287.08 44.9378C1287.08 36.3071 1289.09 28.5892 1293.1 21.7842C1297.2 14.8963 1302.72 9.54357 1309.66 5.72614C1316.6 1.90871 1324.21 0 1332.49 0C1340.85 0 1348.46 1.90871 1355.32 5.72614C1362.26 9.54357 1367.74 14.8963 1371.76 21.7842C1375.77 28.5892 1377.78 36.3071 1377.78 44.9378C1377.78 53.5685 1375.77 61.3278 1371.76 68.2158C1367.74 75.0208 1362.26 80.3734 1355.32 84.2739C1348.38 88.0913 1340.77 90 1332.49 90ZM1332.49 67.3444C1338.76 67.3444 1343.7 65.3112 1347.29 61.2448C1350.97 57.1784 1352.81 51.7427 1352.81 44.9378C1352.81 37.9668 1350.97 32.4896 1347.29 28.5062C1343.7 24.4398 1338.76 22.4066 1332.49 22.4066C1326.14 22.4066 1321.16 24.4398 1317.56 28.5062C1313.97 32.4896 1312.17 37.9668 1312.17 44.9378C1312.17 51.8257 1313.97 57.3029 1317.56 61.3693C1321.16 65.3527 1326.14 67.3444 1332.49 67.3444Z" fill="#FFFEF8"/>
<path d="M1472 89.1286H1447.41L1414.67 40.083V89.1286H1390.08V1.36929H1414.67L1447.41 51.0373V1.36929H1472V89.1286Z" fill="#FFFEF8"/>
</svg>
